<svg width="100" height="100" viewBox="0 0 100 100" xmlns="http://www.w3.org/2000/svg">
  <defs>
    <!-- Gradientes em branco -->
    <linearGradient id="shieldGradientWhite" x1="0%" y1="0%" x2="100%" y2="100%">
      <stop offset="0%" style="stop-color:#FFFFFF;stop-opacity:1" />
      <stop offset="30%" style="stop-color:#F5F5F5;stop-opacity:1" />
      <stop offset="70%" style="stop-color:#E0E0E0;stop-opacity:1" />
      <stop offset="100%" style="stop-color:#CCCCCC;stop-opacity:1" />
    </linearGradient>
    
    <radialGradient id="shieldHighlightWhite" cx="30%" cy="20%">
      <stop offset="0%" style="stop-color:rgba(255,255,255,0.8);stop-opacity:1" />
      <stop offset="50%" style="stop-color:rgba(255,255,255,0.3);stop-opacity:1" />
      <stop offset="100%" style="stop-color:rgba(255,255,255,0);stop-opacity:1" />
    </radialGradient>
    
    <linearGradient id="lockGradientWhite" x1="0%" y1="0%" x2="0%" y2="100%">
      <stop offset="0%" style="stop-color:#FFFFFF;stop-opacity:1" />
      <stop offset="30%" style="stop-color:#F0F0F0;stop-opacity:1" />
      <stop offset="70%" style="stop-color:#E0E0E0;stop-opacity:1" />
      <stop offset="100%" style="stop-color:#D0D0D0;stop-opacity:1" />
    </linearGradient>
    
    <radialGradient id="lockHighlightWhite" cx="30%" cy="20%">
      <stop offset="0%" style="stop-color:rgba(255,255,255,0.9);stop-opacity:1" />
      <stop offset="100%" style="stop-color:rgba(255,255,255,0);stop-opacity:1" />
    </radialGradient>
    
    <radialGradient id="checkGradientWhite" cx="30%" cy="20%">
      <stop offset="0%" style="stop-color:#FFFFFF;stop-opacity:1" />
      <stop offset="30%" style="stop-color:#F5F5F5;stop-opacity:1" />
      <stop offset="70%" style="stop-color:#E8E8E8;stop-opacity:1" />
      <stop offset="100%" style="stop-color:#D5D5D5;stop-opacity:1" />
    </radialGradient>
    
    <!-- Efeitos -->
    <filter id="premiumShadowWhite" x="-100%" y="-100%" width="300%" height="300%">
      <feGaussianBlur in="SourceAlpha" stdDeviation="2"/>
      <feOffset dx="2" dy="3" result="offset"/>
      <feFlood flood-color="#000000" flood-opacity="0.15"/>
      <feComposite in2="offset" operator="in"/>
      <feMerge>
        <feMergeNode/>
        <feMergeNode in="SourceGraphic"/>
      </feMerge>
    </filter>
    
    <filter id="glowWhite" x="-50%" y="-50%" width="200%" height="200%">
      <feGaussianBlur stdDeviation="1" result="coloredBlur"/>
      <feMerge>
        <feMergeNode in="coloredBlur"/>
        <feMergeNode in="SourceGraphic"/>
      </feMerge>
    </filter>
    
    <pattern id="textureWhite" patternUnits="userSpaceOnUse" width="4" height="4">
      <rect width="4" height="4" fill="rgba(0,0,0,0.02)"/>
      <circle cx="2" cy="2" r="0.5" fill="rgba(0,0,0,0.03)"/>
    </pattern>
  </defs>
  
  <!-- Escudo base -->
  <path d="M50 10 Q60 22 80 25 L80 50 Q80 75 50 90 Q20 75 20 50 L20 25 Q40 22 50 10 Z" 
        fill="url(#shieldGradientWhite)" 
        stroke="#CCCCCC" 
        stroke-width="2"
        filter="url(#premiumShadowWhite)"/>
  
  <!-- Textura sutil -->
  <path d="M50 12 Q59 23 78 26 L78 50 Q78 74 50 88 Q22 74 22 50 L22 26 Q41 23 50 12 Z" 
        fill="url(#textureWhite)"/>
  
  <!-- Highlight principal -->
  <path d="M50 12 Q59 23 78 26 L78 50 Q78 74 50 88 Q22 74 22 50 L22 26 Q41 23 50 12 Z" 
        fill="url(#shieldHighlightWhite)"/>
  
  <!-- Borda interna -->
  <path d="M50 13 Q58 24 76 27 L76 50 Q76 72 50 86 Q24 72 24 50 L24 27 Q42 24 50 13 Z" 
        fill="none" 
        stroke="rgba(0,0,0,0.1)" 
        stroke-width="1"/>
  
  <!-- Reflexo lateral -->
  <path d="M26 30 Q28 28 30 30 L30 55 Q28 57 26 55 Z" 
        fill="rgba(0,0,0,0.05)"/>
  
  <!-- Cadeado -->
  <g transform="translate(50, 47)" filter="url(#premiumShadowWhite)">
    <!-- Base do arco -->
    <path d="M-10 -10 Q-10 -18 0 -18 Q10 -18 10 -10 L10 -2" 
          fill="none" 
          stroke="rgba(0,0,0,0.15)" 
          stroke-width="4.5"
          stroke-linecap="round"/>
    
    <!-- Arco principal -->
    <path d="M-10 -10 Q-10 -18 0 -18 Q10 -18 10 -10 L10 -2" 
          fill="none" 
          stroke="url(#lockGradientWhite)" 
          stroke-width="4"
          stroke-linecap="round"
          filter="url(#glowWhite)"/>
    
    <!-- Highlight do arco -->
    <path d="M-8 -11 Q-8 -16 0 -16 Q8 -16 8 -11" 
          fill="none" 
          stroke="rgba(255,255,255,0.8)" 
          stroke-width="1.5"
          stroke-linecap="round"/>
    
    <!-- Corpo do cadeado -->
    <rect x="-13" y="-2" width="26" height="18" 
          rx="4" 
          fill="url(#lockGradientWhite)"
          stroke="rgba(0,0,0,0.1)"
          stroke-width="0.5"/>
    
    <!-- Sombra interna -->
    <rect x="-12" y="-1" width="24" height="2" 
          rx="1" 
          fill="rgba(0,0,0,0.08)"/>
    
    <!-- Highlight do corpo -->
    <rect x="-13" y="-2" width="26" height="18" 
          rx="4" 
          fill="url(#lockHighlightWhite)"/>
    
    <!-- Brilho superior -->
    <rect x="-10" y="0" width="12" height="5" 
          rx="2" 
          fill="rgba(255,255,255,0.7)"/>
    
    <!-- Reflexos laterais -->
    <rect x="-12" y="2" width="3" height="12" 
          rx="1"
          fill="rgba(255,255,255,0.4)"/>
    <rect x="9" y="2" width="3" height="12" 
          rx="1"
          fill="rgba(0,0,0,0.08)"/>
    
    <!-- Detalhe superior -->
    <rect x="-8" y="-1" width="16" height="1" 
          fill="rgba(255,255,255,0.6)"/>
    
    <!-- Buraco da chave -->
    <circle cx="0" cy="7" r="4" fill="rgba(0,0,0,0.2)"/>
    <circle cx="0" cy="7" r="3.5" fill="#999999"/>
    <circle cx="0" cy="7" r="3" fill="#AAAAAA"/>
    
    <!-- Fenda -->
    <rect x="-1.5" y="7" width="3" height="6" 
          rx="1"
          fill="#999999"/>
    
    <!-- Highlight do buraco -->
    <circle cx="-1" cy="6" r="1.2" fill="rgba(255,255,255,0.4)"/>
    
    <!-- Parafusos -->
    <circle cx="-8" cy="4" r="1.5" fill="rgba(0,0,0,0.1)"/>
    <circle cx="8" cy="4" r="1.5" fill="rgba(0,0,0,0.1)"/>
    <circle cx="-8" cy="4" r="1" fill="url(#lockGradientWhite)"/>
    <circle cx="8" cy="4" r="1" fill="url(#lockGradientWhite)"/>
    <circle cx="-8" cy="4" r="0.3" fill="rgba(0,0,0,0.3)"/>
    <circle cx="8" cy="4" r="0.3" fill="rgba(0,0,0,0.3)"/>
  </g>
  
  <!-- Check mark -->
  <g transform="translate(75, 25)">
    <!-- Glow do círculo -->
    <circle cx="0" cy="0" r="14" fill="rgba(0,0,0,0.08)" filter="url(#glowWhite)"/>
    
    <!-- Círculo principal -->
    <circle cx="0" cy="0" r="12" fill="url(#checkGradientWhite)" 
            stroke="rgba(0,0,0,0.15)" 
            stroke-width="1.5"
            filter="url(#premiumShadowWhite)"/>
    
    <!-- Highlight do círculo -->
    <circle cx="-3" cy="-3" r="5" fill="rgba(255,255,255,0.6)"/>
    
    <!-- Reflexo interno -->
    <circle cx="0" cy="0" r="10" 
            fill="none" 
            stroke="rgba(0,0,0,0.08)" 
            stroke-width="1"/>
    
    <!-- Check mark com glow -->
    <path d="M-5 0 L-2 3 L5 -5" 
          fill="none" 
          stroke="rgba(0,0,0,0.2)" 
          stroke-width="3.5" 
          stroke-linecap="round" 
          stroke-linejoin="round"
          filter="url(#glowWhite)"/>
    
    <!-- Check mark principal -->
    <path d="M-5 0 L-2 3 L5 -5" 
          fill="none" 
          stroke="#666666" 
          stroke-width="2.5" 
          stroke-linecap="round" 
          stroke-linejoin="round"/>
  </g>
</svg>